<svg xmlns="http://www.w3.org/2000/svg" xmlns:xlink="http://www.w3.org/1999/xlink" width="200" height="200" viewBox="0 0 200 200">
  <defs>
    <linearGradient id="linear-gradient" x2="1" y2="1" gradientUnits="objectBoundingBox">
      <stop offset="0" stop-color="#6462a4"/>
      <stop offset="1" stop-color="#1b2934"/>
    </linearGradient>
  </defs>
  <g id="Grupo_2" data-name="Grupo 2" transform="translate(-610.5 -107.5)">
    <path id="Caminho_29" data-name="Caminho 29" d="M511.294,261.592h200v200h-200Z" transform="translate(99.206 -154.092)" fill="url(#linear-gradient)"/>
    <g id="Grupo_1" data-name="Grupo 1" transform="translate(93.8 -263.59)">
      <path id="Caminho_10" data-name="Caminho 10" d="M234-636.5V-624h37v-25H234Z" transform="translate(327.2 1035.59)" fill="#fff"/>
      <path id="Caminho_8" data-name="Caminho 8" d="M551-584.2v66.9l4.6.7c5.9.8,29.7.8,31.8,0,1.3-.5,1.6-2.6,1.6-12.8v-12.2l6.9-6.8,6.9-6.8,9.5,18.9,9.6,19,3.8.7c5,.8,34.3.6,36.5-.2,1.3-.6-1.4-5.8-15.9-30.7-9.7-16.5-17.6-30.6-17.7-31.3,0-.7,7.6-8.9,16.9-18.2l17-17H616.4l-3.9,4.7c-2.2,2.7-8.2,9.7-13.5,15.7l-9.5,11-.5-34-.5-33.9-18.7-.3L551-651Z" transform="translate(10.2 1072.59)" fill="#fff"/>
    </g>
  </g>
</svg>
